<?xml version="1.0" standalone="no"?>
<!DOCTYPE svg PUBLIC "-//W3C//DTD SVG 20010904//EN"
 "http://www.w3.org/TR/2001/REC-SVG-20010904/DTD/svg10.dtd">
<svg version="1.0" xmlns="http://www.w3.org/2000/svg"
 width="299.000000pt" height="168.000000pt" viewBox="0 0 299.000000 168.000000"
 preserveAspectRatio="xMidYMid meet">

<g transform="translate(0.000000,168.000000) scale(0.100000,-0.100000)"
fill="#000000" stroke="none">
<path d="M720 950 c0 -5 5 -10 10 -10 6 0 10 5 10 10 0 6 -4 10 -10 10 -5 0
-10 -4 -10 -10z"/>
<path d="M1123 933 c-9 -3 -10 -10 -3 -24 15 -27 28 -24 28 6 0 25 -3 27 -25
18z"/>
<path d="M1760 865 c-7 -9 -10 -18 -7 -22 8 -7 37 15 37 28 0 14 -16 11 -30
-6z"/>
<path d="M1855 859 c-4 -6 -5 -13 -2 -16 7 -7 27 6 27 18 0 12 -17 12 -25 -2z"/>
<path d="M78 833 c7 -3 16 -2 19 1 4 3 -2 6 -13 5 -11 0 -14 -3 -6 -6z"/>
<path d="M1570 790 c0 -5 5 -10 10 -10 6 0 10 5 10 10 0 6 -4 10 -10 10 -5 0
-10 -4 -10 -10z"/>
<path d="M1035 730 c3 -5 1 -10 -5 -10 -6 0 -9 -4 -5 -9 3 -5 -8 -9 -24 -9
-17 1 -28 4 -26 8 2 4 -2 7 -10 7 -32 0 -12 -16 41 -33 l55 -17 22 23 c12 12
16 20 10 16 -7 -4 -20 2 -30 14 -18 20 -39 28 -28 10z"/>
<path d="M1308 733 c7 -3 16 -2 19 1 4 3 -2 6 -13 5 -11 0 -14 -3 -6 -6z"/>
<path d="M645 720 c3 -5 8 -10 11 -10 2 0 4 5 4 10 0 6 -5 10 -11 10 -5 0 -7
-4 -4 -10z"/>
<path d="M2108 718 c5 -5 16 -8 23 -6 8 3 3 7 -10 11 -17 4 -21 3 -13 -5z"/>
<path d="M1015 576 c-15 -11 -17 -18 -9 -26 8 -8 14 -7 23 4 20 24 9 39 -14
22z"/>
<path d="M2950 575 c7 -9 15 -13 17 -11 7 7 -7 26 -19 26 -6 0 -6 -6 2 -15z"/>
<path d="M1106 561 c-3 -5 1 -11 9 -15 8 -3 15 -12 15 -21 0 -8 5 -15 10 -15
16 0 11 47 -6 54 -20 8 -22 8 -28 -3z"/>
<path d="M780 549 c0 -5 5 -7 10 -4 6 3 10 8 10 11 0 2 -4 4 -10 4 -5 0 -10
-5 -10 -11z"/>
<path d="M1440 540 c0 -5 5 -10 10 -10 6 0 10 5 10 10 0 6 -4 10 -10 10 -5 0
-10 -4 -10 -10z"/>
<path d="M1889 535 c-3 -5 -5 -14 -5 -20 1 -14 36 -62 36 -49 0 5 -4 14 -9 20
-5 5 -11 20 -13 34 -2 14 -6 21 -9 15z"/>
<path d="M2006 514 c-8 -22 1 -31 16 -16 9 9 9 15 1 23 -7 7 -12 5 -17 -7z"/>
<path d="M420 510 c0 -5 5 -10 10 -10 6 0 10 5 10 10 0 6 -4 10 -10 10 -5 0
-10 -4 -10 -10z"/>
<path d="M765 500 c-3 -5 -1 -10 4 -10 6 0 11 5 11 10 0 6 -2 10 -4 10 -3 0
-8 -4 -11 -10z"/>
<path d="M80 490 c0 -5 5 -10 10 -10 6 0 10 5 10 10 0 6 -4 10 -10 10 -5 0
-10 -4 -10 -10z"/>
<path d="M264 435 c-15 -7 -18 -13 -10 -20 12 -11 46 -8 46 3 -1 20 -16 28
-36 17z"/>
<path d="M1721 404 c0 -11 3 -14 6 -6 3 7 2 16 -1 19 -3 4 -6 -2 -5 -13z"/>
<path d="M1328 373 c-6 -24 9 -56 23 -48 13 9 11 28 -4 50 -13 17 -14 17 -19
-2z"/>
<path d="M2275 370 c3 -5 13 -10 21 -10 8 0 12 5 9 10 -3 6 -13 10 -21 10 -8
0 -12 -4 -9 -10z"/>
<path d="M1491 334 c0 -11 3 -14 6 -6 3 7 2 16 -1 19 -3 4 -6 -2 -5 -13z"/>
<path d="M2118 343 c7 -3 16 -2 19 1 4 3 -2 6 -13 5 -11 0 -14 -3 -6 -6z"/>
<path d="M866 333 c-3 -3 9 -16 27 -28 18 -12 31 -27 29 -34 -1 -7 2 -10 8 -6
6 4 1 17 -12 35 -22 30 -42 43 -52 33z"/>
<path d="M355 310 c3 -5 13 -10 21 -10 8 0 14 5 14 10 0 6 -9 10 -21 10 -11 0
-17 -4 -14 -10z"/>
<path d="M1210 303 c0 -4 5 -15 10 -23 8 -13 10 -13 10 2 0 9 -4 20 -10 23 -5
3 -10 3 -10 -2z"/>
<path d="M775 280 c20 -22 31 -20 22 5 -4 8 -14 15 -23 15 -16 0 -16 -2 1 -20z"/>
<path d="M114 220 c-4 -16 -18 -37 -31 -46 -20 -12 -22 -18 -12 -24 7 -5 21
-3 33 6 13 9 34 12 60 8 l41 -5 -27 15 c-15 9 -29 28 -33 46 -8 38 -24 39 -31
0z"/>
<path d="M315 230 c-3 -5 -1 -10 4 -10 6 0 11 5 11 10 0 6 -2 10 -4 10 -3 0
-8 -4 -11 -10z"/>
<path d="M455 200 c4 -6 11 -8 16 -5 14 9 11 15 -7 15 -8 0 -12 -5 -9 -10z"/>
<path d="M563 186 c4 -10 7 -24 7 -32 0 -9 4 -13 9 -10 11 7 3 44 -12 53 -7 4
-8 0 -4 -11z"/>
<path d="M1936 184 c-4 -10 2 -14 19 -14 13 0 33 -10 45 -22 19 -21 20 -21 20
-2 0 25 -76 60 -84 38z"/>
<path d="M1460 170 c0 -5 9 -10 21 -10 11 0 17 5 14 10 -3 6 -13 10 -21 10 -8
0 -14 -4 -14 -10z"/>
<path d="M1738 173 c7 -3 16 -2 19 1 4 3 -2 6 -13 5 -11 0 -14 -3 -6 -6z"/>
<path d="M1786 171 c-3 -5 1 -11 9 -15 8 -3 15 -1 15 4 0 13 -18 22 -24 11z"/>
<path d="M1172 163 c-37 -7 -20 -28 20 -25 28 3 39 -2 51 -18 9 -12 20 -20 25
-16 6 3 7 -7 3 -27 -6 -26 -3 -35 16 -50 24 -19 54 -20 60 -1 2 6 -10 14 -27
17 -28 6 -30 9 -30 52 0 41 -2 45 -24 45 -13 0 -29 7 -36 15 -13 15 -17 16
-58 8z"/>
<path d="M2229 122 c-22 -23 -24 -31 -15 -54 5 -16 14 -28 20 -28 5 0 18 -7
28 -17 10 -9 18 -12 18 -7 0 5 -9 15 -20 22 -26 16 -26 57 1 76 12 8 18 19 14
25 -9 16 -17 13 -46 -17z"/>
<path d="M1010 129 c0 -5 5 -7 10 -4 6 3 10 8 10 11 0 2 -4 4 -10 4 -5 0 -10
-5 -10 -11z"/>
<path d="M1815 119 c4 -13 8 -24 9 -24 56 -18 61 -22 66 -50 5 -25 7 -27 13
-12 4 10 2 27 -3 37 -6 10 -10 28 -10 39 0 13 -7 21 -17 21 -10 0 -29 3 -42 7
-21 5 -23 3 -16 -18z"/>
<path d="M730 100 c0 -5 5 -10 11 -10 5 0 7 5 4 10 -3 6 -8 10 -11 10 -2 0 -4
-4 -4 -10z"/>
<path d="M770 80 c20 -13 33 -13 25 0 -3 6 -14 10 -23 10 -15 0 -15 -2 -2 -10z"/>
<path d="M818 83 c7 -3 16 -2 19 1 4 3 -2 6 -13 5 -11 0 -14 -3 -6 -6z"/>
<path d="M891 81 c-8 -5 -9 -11 -3 -15 5 -3 12 1 16 9 6 17 6 18 -13 6z"/>
<path d="M295 70 c3 -5 10 -10 16 -10 5 0 9 5 9 10 0 6 -7 10 -16 10 -8 0 -12
-4 -9 -10z"/>
<path d="M2440 70 c0 -5 5 -10 11 -10 5 0 7 5 4 10 -3 6 -8 10 -11 10 -2 0 -4
-4 -4 -10z"/>
<path d="M2900 69 c0 -5 5 -7 10 -4 6 3 10 8 10 11 0 2 -4 4 -10 4 -5 0 -10
-5 -10 -11z"/>
<path d="M696 51 c-4 -7 -5 -15 -2 -18 9 -9 19 4 14 18 -4 11 -6 11 -12 0z"/>
<path d="M1105 43 c-11 -3 -24 -10 -30 -15 -7 -7 -2 -8 15 -3 52 15 64 30 15
18z"/>
<path d="M1980 40 c0 -5 5 -10 11 -10 5 0 7 5 4 10 -3 6 -8 10 -11 10 -2 0 -4
-4 -4 -10z"/>
</g>
</svg>
