<?xml version="1.0" standalone="no"?>
<!DOCTYPE svg PUBLIC "-//W3C//DTD SVG 20010904//EN"
 "http://www.w3.org/TR/2001/REC-SVG-20010904/DTD/svg10.dtd">
<svg version="1.0" xmlns="http://www.w3.org/2000/svg"
 width="275.000000pt" height="183.000000pt" viewBox="0 0 275.000000 183.000000"
 preserveAspectRatio="xMidYMid meet">

<g transform="translate(0.000000,183.000000) scale(0.100000,-0.100000)"
fill="#000000" stroke="none">
<path d="M0 915 l0 -915 1375 0 1375 0 0 314 0 314 -32 8 c-18 4 -36 7 -39 6
-42 -10 -58 -9 -63 4 -3 9 -10 13 -15 9 -5 -3 -12 5 -14 17 -4 22 -4 22 -7 -2
-1 -19 -5 -15 -14 20 l-13 45 -10 -55 c-6 -33 -11 -44 -12 -27 -1 24 -21 41
-21 17 0 -5 -4 -10 -10 -10 -5 0 -10 10 -10 23 0 18 -2 19 -10 7 -9 -13 -10
-13 -11 0 0 8 -5 4 -9 -10 -8 -25 -8 -24 -9 5 -1 23 -3 27 -11 15 -5 -8 -10
-10 -10 -5 0 14 -38 17 -45 4 -4 -5 -15 -9 -25 -9 -10 0 -23 -7 -28 -16 -15
-26 -73 -41 -163 -42 -50 0 -85 -5 -87 -11 -2 -6 -10 -11 -17 -11 -11 0 -126
-54 -217 -101 -10 -5 -27 -9 -38 -9 -11 0 -23 -7 -27 -16 -3 -8 -11 -13 -19
-10 -8 3 -15 -6 -19 -25 -6 -25 -8 -27 -21 -15 -18 18 -18 26 1 26 9 0 12 6 8
16 -3 8 -12 13 -20 10 -8 -3 -22 -2 -32 3 -13 7 -17 5 -17 -9 0 -10 6 -16 13
-13 13 5 18 -9 7 -20 -8 -8 -34 3 -34 14 0 5 -9 23 -21 41 -13 21 -18 25 -14
11 4 -15 0 -26 -16 -37 -12 -8 -26 -13 -31 -10 -4 3 -8 -4 -8 -15 0 -25 -8
-26 -31 -5 -16 14 -21 13 -64 -10 -25 -14 -52 -26 -60 -26 -8 0 -15 -3 -15 -8
0 -4 -16 -12 -36 -18 -38 -12 -124 0 -124 17 0 5 -4 9 -10 9 -5 0 -10 -7 -10
-15 0 -20 -16 -19 -24 2 -5 12 -10 13 -18 5 -7 -7 -18 -7 -37 0 -16 6 -91 8
-198 4 l-173 -6 -6 25 c-3 14 -4 31 -1 39 6 15 -54 38 -87 34 -26 -4 -45 45
-29 71 6 9 9 29 6 44 -8 40 14 82 58 111 26 18 39 34 39 49 1 61 59 132 224
272 32 28 68 58 79 68 l20 17 -21 23 c-29 31 -28 38 6 27 107 -35 129 -39 157
-24 15 8 39 14 54 14 21 0 23 2 11 11 -12 8 -9 9 9 4 19 -6 23 -4 18 8 -3 9
-9 33 -12 54 -4 21 -11 50 -17 65 -9 25 -6 31 49 85 33 32 90 96 128 142 40
49 82 89 101 97 18 8 90 16 165 19 303 13 389 35 439 112 13 21 28 44 33 51 8
9 -212 12 -1087 12 l-1096 0 0 -915z m1223 455 c17 -15 19 -21 10 -31 -10 -10
-16 -9 -31 4 -10 9 -24 17 -30 17 -7 0 -12 5 -12 11 0 5 -4 8 -9 4 -5 -3 -12
-1 -15 4 -11 17 64 9 87 -9z m-133 6 c0 -2 -13 -6 -30 -8 -16 -3 -30 -1 -30 4
0 4 14 8 30 8 17 0 30 -2 30 -4z m-86 -17 c-3 -6 -15 -9 -25 -6 -13 3 -23 -2
-30 -15 -9 -16 -7 -23 11 -35 12 -9 19 -21 16 -30 -3 -8 -1 -11 4 -8 12 7 12
-11 1 -40 -7 -18 -9 -18 -34 7 -34 34 -36 82 -5 115 21 23 76 34 62 12z m90
-24 c17 -16 26 -32 22 -41 -4 -10 -1 -13 7 -9 6 4 4 0 -5 -8 -23 -18 -23 -31
-2 -19 17 10 106 -21 132 -45 18 -17 7 -16 -21 1 -31 19 -77 29 -77 16 0 -6
-5 -8 -10 -5 -6 4 -7 12 -3 18 4 7 0 7 -10 -1 -18 -15 -37 -8 -37 14 0 8 -5
14 -11 14 -5 0 -8 -4 -5 -9 4 -5 -2 -8 -11 -7 -10 2 -18 11 -18 20 0 9 -7 21
-15 26 -9 6 -10 10 -3 10 6 0 15 -4 18 -10 10 -16 25 -12 26 8 0 13 2 12 9 -5
5 -13 12 -23 15 -23 12 0 -8 45 -28 63 -11 9 -16 17 -10 17 6 0 22 -11 37 -25z
m55 -6 c1 8 3 12 6 10 2 -3 2 -15 -2 -27 -7 -29 -23 -18 -22 16 0 24 1 25 9 7
5 -12 9 -14 9 -6z m74 -29 c3 -11 1 -20 -4 -20 -5 0 -9 8 -10 18 0 13 -2 12
-9 -5 -12 -30 -20 -29 -20 2 0 31 35 35 43 5z m-793 -10 c0 -5 -2 -10 -4 -10
-3 0 -8 5 -11 10 -3 6 -1 10 4 10 6 0 11 -4 11 -10z m-200 -180 c0 -5 -7 -10
-16 -10 -8 0 -12 5 -9 10 3 6 10 10 16 10 5 0 9 -4 9 -10z m1410 -665 c0 -5
-5 -3 -10 5 -5 8 -10 20 -10 25 0 6 5 3 10 -5 5 -8 10 -19 10 -25z m-30 1 c0
-3 -4 -8 -10 -11 -5 -3 -10 -1 -10 4 0 6 5 11 10 11 6 0 10 -2 10 -4z"/>
<path d="M1542 1370 c-17 -37 -23 -37 -44 -2 l-17 27 -1 -27 c0 -36 -92 -133
-116 -124 -12 5 -15 2 -10 -11 4 -10 4 -14 0 -10 -11 10 -34 -13 -34 -34 0
-10 19 -36 42 -59 23 -22 37 -40 31 -40 -7 0 -15 5 -18 10 -4 6 -11 8 -16 5
-5 -3 -7 0 -4 7 3 7 -11 24 -30 37 -34 23 -36 23 -61 6 -15 -9 -53 -20 -86
-22 -32 -3 -61 -9 -63 -14 -3 -4 21 -11 52 -15 32 -4 66 -10 76 -13 17 -6 17
-8 -3 -34 -19 -24 -28 -27 -86 -27 -53 0 -66 -3 -76 -20 -7 -11 -22 -20 -34
-20 -12 0 -30 -11 -40 -25 -10 -14 -25 -25 -33 -25 -8 0 -11 -7 -8 -19 3 -13
0 -18 -8 -15 -14 6 -28 -22 -19 -37 3 -5 1 -9 -5 -9 -6 0 -9 -6 -6 -12 4 -13
-106 -108 -125 -108 -25 0 10 -44 38 -46 34 -3 35 -5 8 -19 -16 -9 -35 -14
-42 -11 -7 3 -26 -6 -43 -18 l-31 -23 38 -11 c20 -6 49 -13 63 -16 14 -3 31
-17 39 -31 12 -23 19 -25 77 -25 35 0 63 -4 63 -10 0 -5 12 -10 26 -10 19 0
25 4 20 15 -3 8 -1 15 4 15 6 0 10 -4 10 -9 0 -4 35 -6 78 -3 270 18 264 17
332 50 36 18 77 32 93 32 29 0 162 33 209 51 20 8 36 29 57 73 34 73 33 72
186 169 66 43 131 87 145 98 24 20 24 20 3 16 -12 -3 -38 5 -60 19 -21 13 -44
24 -50 24 -17 0 -113 42 -113 50 0 3 10 10 22 15 11 6 25 21 30 35 7 22 7 23
-6 7 -12 -15 -15 -15 -26 -2 -10 12 -7 18 19 32 17 10 31 23 31 30 0 7 7 16
16 21 11 6 1 8 -33 7 -27 -1 -55 -5 -63 -10 -9 -5 -15 -4 -18 3 -6 19 -22 14
-22 -8 0 -21 -12 -25 -98 -34 -62 -6 -176 24 -132 34 22 5 23 7 7 13 -27 10
-69 9 -62 -3 3 -5 -7 -8 -23 -7 -28 2 -29 3 -27 57 1 30 -1 63 -4 72 -5 14 -9
12 -19 -12z m-72 -221 c0 -9 -3 -19 -7 -23 -4 -4 -8 -15 -8 -24 -1 -9 -2 -27
-3 -38 -1 -13 -11 -25 -24 -29 -37 -11 -118 -17 -118 -8 1 23 31 44 64 45 20
1 34 3 32 6 -3 2 4 20 14 40 18 32 18 36 3 47 -15 11 -14 14 3 32 19 19 19 19
31 -6 7 -14 12 -33 13 -42z m-78 46 c-22 -10 -31 -19 -26 -27 5 -10 3 -10 -7
0 -12 11 -11 15 5 28 11 8 29 14 40 14 16 -1 12 -4 -12 -15z m39 -275 c-2 -3
1 -15 8 -28 11 -22 11 -22 -8 -10 -12 7 -21 16 -21 20 0 4 -7 5 -15 2 -15 -6
-21 7 -8 20 8 8 50 4 44 -4z m-316 -10 c-3 -5 -14 -10 -23 -10 -15 0 -15 2 -2
10 20 13 33 13 25 0z"/>
<path d="M2705 1344 c-22 -19 -62 -52 -90 -73 -51 -39 -205 -189 -205 -201 0
-3 10 -6 23 -8 12 -1 56 -10 97 -21 56 -14 87 -17 125 -11 28 5 60 6 73 3 l22
-5 0 176 c0 97 -1 176 -2 176 -2 -1 -21 -17 -43 -36z"/>
<path d="M745 580 c-3 -5 1 -10 9 -10 9 0 16 5 16 10 0 6 -4 10 -9 10 -6 0
-13 -4 -16 -10z"/>
<path d="M820 580 c0 -5 5 -10 11 -10 5 0 7 5 4 10 -3 6 -8 10 -11 10 -2 0 -4
-4 -4 -10z"/>
<path d="M940 500 c0 -5 7 -10 15 -10 8 0 15 5 15 10 0 6 -7 10 -15 10 -8 0
-15 -4 -15 -10z"/>
</g>
</svg>
