<?xml version="1.0" standalone="no"?>
<!DOCTYPE svg PUBLIC "-//W3C//DTD SVG 20010904//EN"
 "http://www.w3.org/TR/2001/REC-SVG-20010904/DTD/svg10.dtd">
<svg version="1.0" xmlns="http://www.w3.org/2000/svg"
 width="1024.000000pt" height="683.000000pt" viewBox="0 0 1024.000000 683.000000"
 preserveAspectRatio="xMidYMid meet">

<g transform="translate(0.000000,683.000000) scale(0.100000,-0.100000)"
fill="#000000" stroke="none">
<path d="M0 3415 l0 -3415 5120 0 5120 0 0 3415 0 3415 -5120 0 -5120 0 0
-3415z m6984 3219 c41 -14 50 -23 67 -61 10 -25 19 -63 19 -86 -1 -82 -51
-283 -98 -392 -16 -39 -38 -99 -48 -135 -17 -64 -24 -75 -75 -128 -14 -15 -29
-35 -32 -44 -4 -10 -15 -18 -26 -18 -10 0 -21 -7 -25 -15 -5 -13 -36 -22 -36
-10 0 11 44 83 66 106 13 14 24 33 24 42 0 10 7 20 15 23 10 4 12 15 8 36 -4
22 -3 29 6 24 18 -12 41 20 41 58 0 19 4 38 10 41 5 3 7 19 3 35 -4 23 -2 30
10 30 18 0 82 124 72 140 -7 11 11 102 25 130 4 9 11 38 14 66 6 39 4 53 -8
63 -8 7 -12 20 -9 28 6 14 -1 15 -43 10 -43 -6 -46 -5 -26 6 12 7 19 16 15 21
-4 4 -1 12 7 17 15 10 -102 7 -147 -4 -37 -9 -110 -44 -117 -56 -4 -6 -12 -11
-17 -11 -6 0 -7 4 -4 10 3 5 -14 0 -37 -11 -24 -11 -64 -30 -91 -41 -26 -11
-45 -23 -43 -25 9 -9 -29 -43 -49 -43 -11 -1 -54 -33 -95 -72 -41 -39 -68 -67
-60 -63 10 6 9 1 -4 -13 -10 -12 -27 -24 -37 -27 -11 -4 -16 -12 -12 -21 3 -8
-1 -14 -10 -14 -22 0 -32 -20 -16 -32 11 -8 11 -9 -2 -5 -9 3 -24 -8 -40 -32
-13 -20 -35 -47 -48 -61 l-23 -25 23 43 c13 23 52 79 87 124 35 44 80 107 99
140 55 94 100 121 334 203 191 67 253 76 333 49z m-179 -84 c3 -5 2 -10 -4
-10 -5 0 -13 5 -16 10 -3 6 -2 10 4 10 5 0 13 -4 16 -10z m-25 -30 c0 -5 -5
-10 -11 -10 -6 0 -19 -10 -28 -22 -11 -13 -23 -18 -30 -13 -10 5 -5 14 15 31
31 25 54 31 54 14z m-125 -109 c-110 -109 -343 -349 -385 -398 -59 -68 -102
-119 -142 -170 -18 -23 -78 -95 -133 -160 -157 -184 -183 -218 -159 -205 11 6
26 17 32 25 13 15 64 38 131 58 24 7 54 21 67 31 13 11 31 18 41 16 11 -2 17
2 15 11 -2 10 6 12 33 7 40 -8 133 18 150 41 7 9 18 10 40 4 17 -5 22 -10 13
-10 -16 -1 -23 -13 -19 -34 1 -5 -16 -7 -38 -6 -22 2 -43 0 -47 -4 -4 -4 -17
-7 -28 -7 -53 0 -157 -49 -247 -117 -110 -83 -135 -109 -137 -143 -1 -14 -6
-26 -12 -28 -5 -2 -10 -10 -10 -19 0 -12 -2 -12 -16 2 -12 12 -19 13 -30 4 -8
-6 -14 -8 -14 -4 0 18 -46 -35 -99 -115 -78 -116 -136 -229 -151 -292 -18 -83
-18 -82 -36 -63 -16 15 -18 15 -35 -2 -10 -10 -20 -38 -23 -63 -3 -25 -5 -46
-5 -47 -1 -2 -5 -3 -11 -3 -5 0 -10 24 -10 54 0 30 -4 56 -10 58 -11 3 9 78
21 78 3 0 10 21 14 47 8 52 71 162 93 163 26 0 75 32 63 40 -12 7 45 94 111
170 20 23 42 51 172 220 28 36 53 67 56 70 22 21 80 101 80 110 0 6 4 9 9 5 5
-3 15 11 21 31 9 27 15 33 21 23 7 -11 9 -11 9 3 0 9 10 20 21 23 17 6 18 9 8
16 -11 6 -10 9 4 15 9 3 17 13 17 21 0 9 6 13 14 10 9 -4 13 -1 10 6 -2 7 6
17 18 22 13 6 22 18 21 28 0 10 1 16 4 13 9 -9 54 38 48 52 -2 7 -1 11 4 8 5
-3 15 2 22 11 12 14 12 16 0 8 -10 -5 -12 -4 -7 3 4 7 13 12 20 12 8 0 20 8
27 17 12 15 12 16 -3 10 -10 -3 -18 -2 -18 4 0 5 8 12 18 16 9 3 25 13 36 22
10 9 21 15 25 14 3 -1 5 5 3 13 -2 8 2 14 8 14 5 0 10 6 10 13 1 14 53 67 72
72 39 9 57 18 53 26 -3 4 -13 5 -22 2 -9 -4 -2 8 16 25 18 17 30 36 26 41 -3
7 3 11 17 12 51 3 53 4 50 26 -2 17 1 21 12 17 19 -7 22 21 4 30 -7 3 -1 4 15
2 15 -2 27 1 27 5 0 5 5 9 11 9 6 0 17 7 25 15 9 8 21 15 27 15 7 0 -10 -22
-38 -49z m260 19 c4 -6 -10 -10 -35 -10 -25 0 -39 4 -35 10 3 6 19 10 35 10
16 0 32 -4 35 -10z m-435 -10 c0 -5 -4 -10 -10 -10 -5 0 -10 5 -10 10 0 6 5
10 10 10 6 0 10 -4 10 -10z m315 -60 c-3 -5 -13 -10 -21 -10 -8 0 -12 5 -9 10
3 6 13 10 21 10 8 0 12 -4 9 -10z m89 -86 c13 -5 14 -8 1 -28 -8 -13 -12 -25
-9 -29 12 -11 -57 12 -73 25 -13 10 -13 14 3 25 19 14 52 17 78 7z m-189 -114
c15 -6 11 -8 -17 -7 -21 1 -38 5 -38 10 0 9 29 8 55 -3z m75 -41 c0 -4 -9 -9
-20 -11 -14 -2 -17 -7 -11 -17 7 -11 15 -12 32 -5 26 12 52 -7 61 -44 6 -20 3
-21 -39 -15 -30 4 -62 0 -101 -13 -59 -19 -295 -133 -300 -144 -1 -4 -16 -4
-33 -2 -30 4 -29 5 28 35 32 16 68 35 80 41 29 14 29 20 -1 34 -20 9 -26 7
-47 -18 -13 -16 -34 -29 -46 -30 -13 0 -30 -11 -40 -27 -25 -40 -53 -57 -53
-32 0 5 3 8 8 6 4 -3 13 1 19 9 9 9 9 15 2 19 -5 4 6 16 26 26 20 11 41 16 47
13 7 -5 9 -2 6 8 -4 10 10 27 42 52 42 32 52 36 70 26 11 -6 30 -8 40 -5 11 4
20 2 20 -3 0 -12 -24 -22 -50 -22 -31 0 -30 -15 0 -17 16 -1 34 4 40 12 7 8
23 15 36 15 13 0 36 12 51 26 l28 26 -65 -2 c-118 -5 -130 0 -85 33 20 14 24
15 19 2 -9 -23 14 -18 26 6 7 11 17 18 24 16 7 -3 18 -2 23 1 16 10 163 11
163 1z m-713 -182 c-7 -20 -15 -37 -19 -37 -4 0 -15 -14 -23 -31 -9 -17 -18
-29 -21 -26 -2 2 12 34 33 70 21 36 39 65 40 64 1 -1 -4 -19 -10 -40z m263 39
c0 -3 -4 -8 -10 -11 -5 -3 -10 -1 -10 4 0 6 5 11 10 11 6 0 10 -2 10 -4z m370
-36 c0 -6 12 -15 26 -20 31 -12 27 -34 -7 -36 -13 -1 -37 -5 -54 -8 -20 -5
-37 -2 -50 8 -20 15 -20 15 5 33 43 32 80 42 80 23z m-2680 -129 c240 -54 336
-95 634 -270 68 -40 308 -244 318 -270 8 -24 132 -143 168 -161 49 -25 152
-160 175 -230 21 -62 40 -67 29 -7 -11 62 -10 80 2 84 6 2 19 -9 29 -24 18
-27 18 -28 0 -13 -17 14 -18 13 -11 -35 17 -108 12 -121 -51 -154 -18 -9 -23
-8 -28 10 -4 11 -22 47 -40 79 -22 39 -30 62 -23 66 7 4 8 2 4 -4 -5 -8 -2
-10 8 -6 9 3 13 10 10 16 -3 5 -13 7 -21 4 -9 -4 -37 16 -76 53 -34 33 -73 69
-87 81 l-25 21 30 -18 c17 -9 32 -20 35 -23 3 -3 20 -17 39 -29 30 -22 32 -22
23 -4 -21 39 -104 123 -122 123 -20 0 -80 57 -80 77 0 7 -7 13 -15 13 -8 0
-15 6 -15 14 0 8 -11 23 -25 34 -14 11 -25 24 -25 30 0 5 -7 13 -16 16 -8 3
-13 10 -9 16 9 14 -17 50 -36 50 -18 0 -29 20 -29 50 0 10 -8 20 -17 24 -10 3
-31 14 -48 25 -16 10 -34 16 -39 13 -5 -3 -6 2 -3 12 5 11 0 20 -16 26 -37 17
-112 62 -118 73 -4 5 -12 6 -18 3 -8 -5 -7 -12 4 -22 17 -17 21 -64 5 -64 -9
0 -14 17 -13 48 1 8 -6 10 -17 7 -14 -4 -16 -1 -12 20 3 20 0 25 -17 25 -14 0
-21 6 -21 20 0 11 -3 19 -7 18 -12 -2 -46 14 -61 29 -7 7 -20 13 -28 13 -8 0
-12 4 -9 10 3 6 -1 7 -9 4 -9 -3 -16 -1 -16 5 0 6 -6 11 -12 11 -7 1 -31 9
-53 20 -22 10 -43 16 -48 13 -4 -2 -15 1 -23 8 -24 20 -37 -3 -17 -31 10 -14
16 -35 15 -47 -2 -14 4 -26 19 -34 13 -6 32 -20 43 -30 11 -11 27 -17 37 -14
9 3 19 -1 22 -9 3 -8 27 -24 53 -35 26 -12 45 -24 41 -27 -3 -3 -15 -1 -26 6
-12 6 -21 8 -21 6 0 -3 9 -10 21 -16 15 -9 24 -8 37 2 13 11 15 11 9 -4 -7
-20 26 -43 49 -34 8 3 13 2 10 -2 -2 -4 18 -20 46 -35 l50 -28 -21 29 c-24 34
-26 42 -11 42 6 0 13 -8 17 -17 3 -10 13 -26 22 -37 9 -10 15 -21 15 -25 -1
-3 16 -16 37 -29 24 -14 39 -18 39 -11 0 8 4 8 15 -1 8 -7 12 -16 9 -21 -3 -5
1 -6 9 -3 8 3 20 -3 28 -12 12 -16 12 -17 -1 -10 -8 4 -6 1 4 -8 10 -8 23 -13
28 -10 5 3 8 2 7 -3 -3 -19 2 -27 10 -15 6 10 21 3 62 -28 30 -23 53 -45 52
-50 -2 -6 13 -20 32 -32 46 -30 44 -38 -7 -26 -24 5 -62 7 -85 4 -25 -3 -45
-1 -49 5 -3 6 -15 9 -25 6 -10 -3 -22 -1 -25 4 -3 5 -22 9 -42 9 -47 1 -125
18 -132 30 -3 5 -21 11 -40 13 -54 7 -111 36 -233 119 -65 45 -84 53 -202 83
-49 13 -103 30 -118 38 -41 21 -98 77 -92 87 4 6 2 10 -4 10 -17 0 -80 45 -81
58 0 6 -4 12 -10 12 -12 0 -60 48 -60 60 0 6 -7 10 -15 10 -8 0 -15 5 -15 10
0 6 -13 10 -30 10 -21 0 -38 9 -56 30 -15 16 -30 27 -35 25 -4 -3 -10 -1 -14
5 -3 5 -16 10 -28 10 -16 0 -18 -3 -8 -9 8 -5 9 -11 3 -15 -20 -12 -23 28 -3
48 52 52 277 55 491 7z m1934 -93 c-8 -26 -55 -91 -61 -85 -3 4 59 106 65 107
2 0 0 -10 -4 -22z m760 7 c4 -10 -2 -19 -17 -24 -30 -12 -39 -4 -24 19 14 24
33 26 41 5z m-638 -34 c-3 -5 -16 -11 -28 -14 -22 -6 -22 -5 -4 8 22 17 40 20
32 6z m514 -32 c0 -5 -7 -9 -15 -9 -15 0 -20 12 -9 23 8 8 24 -1 24 -14z
m-143 -25 c-3 -3 -12 -4 -19 -1 -8 3 -5 6 6 6 11 1 17 -2 13 -5z m-40 -10 c-3
-3 -12 -4 -19 -1 -8 3 -5 6 6 6 11 1 17 -2 13 -5z m-537 -27 c0 -2 -11 -18
-25 -37 -14 -19 -25 -31 -25 -27 0 5 10 21 22 37 20 27 28 35 28 27z m90 -207
c0 -5 -4 -10 -10 -10 -5 0 -10 5 -10 10 0 6 5 10 10 10 6 0 10 -4 10 -10z
m-1295 -18 c-3 -3 -11 0 -18 7 -9 10 -8 11 6 5 10 -3 15 -9 12 -12z m613 -138
c-7 -16 -6 -31 6 -55 17 -36 18 -101 1 -96 -25 8 -36 53 -30 121 3 38 8 73 12
79 11 18 21 -27 11 -49z m347 26 c-14 -15 -21 -17 -26 -8 -11 17 -2 28 23 28
21 0 21 -1 3 -20z m-138 -567 c-2 -16 -4 -3 -4 27 0 30 2 43 4 28 2 -16 2 -40
0 -55z m-67 -48 c0 -47 -14 -61 -23 -24 -6 20 7 69 18 69 3 0 5 -20 5 -45z
m69 -52 c1 -7 -3 -13 -9 -13 -5 0 -10 17 -9 38 1 33 2 34 9 12 4 -14 8 -31 9
-37z m-152 -75 c-3 -8 -6 -5 -6 6 -1 11 2 17 5 13 3 -3 4 -12 1 -19z m152 -71
c-1 -59 -5 -54 -12 15 -2 26 -1 45 4 42 5 -3 9 -29 8 -57z m-73 -8 c3 -64 4
-66 27 -64 31 3 47 -5 47 -22 0 -13 -3 -13 -15 -3 -13 11 -14 6 -11 -34 3 -25
0 -48 -5 -51 -8 -6 -12 12 -12 58 0 9 -2 17 -6 17 -15 -1 -26 -17 -26 -39 0
-35 -25 -39 -27 -4 0 15 0 35 1 43 1 8 2 41 3 73 0 39 4 57 12 54 6 -2 11 -15
12 -28z m71 -141 c-3 -8 -6 -5 -6 6 -1 11 2 17 5 13 3 -3 4 -12 1 -19z m0 -75
c-3 -10 -5 -2 -5 17 0 19 2 27 5 18 2 -10 2 -26 0 -35z m7 -49 c3 -8 2 -12 -4
-9 -6 3 -10 10 -10 16 0 14 7 11 14 -7z m6 -50 c0 -8 -4 -14 -9 -14 -6 0 -9 9
-8 19 1 22 17 18 17 -5z m7 -56 c-3 -8 -6 -5 -6 6 -1 11 2 17 5 13 3 -3 4 -12
1 -19z m-3 -43 c3 -8 1 -15 -3 -15 -5 0 -11 7 -15 15 -3 8 -1 15 3 15 5 0 11
-7 15 -15z m-2239 -30 c0 -17 -8 -20 -45 -23 -52 -3 -76 9 -67 33 5 13 18 15
59 13 45 -3 53 -6 53 -23z m2245 -5 c0 -5 -5 -10 -11 -10 -5 0 -7 5 -4 10 3 6
8 10 11 10 2 0 4 -4 4 -10z m3 -102 c4 -50 2 -67 -7 -57 -9 9 -15 109 -7 109
5 0 11 -24 14 -52z m17 -103 c0 -5 -5 -3 -10 5 -5 8 -10 20 -10 25 0 6 5 3 10
-5 5 -8 10 -19 10 -25z m-1 -119 l-2 -61 -7 67 c-5 37 -11 73 -15 80 -4 7 1 4
9 -6 11 -14 16 -39 15 -80z m-69 -60 c0 -3 -4 -8 -10 -11 -5 -3 -10 -1 -10 4
0 6 5 11 10 11 6 0 10 -2 10 -4z m80 -26 c0 -11 -4 -20 -9 -20 -6 0 -9 9 -8
20 1 11 5 20 9 20 4 0 8 -9 8 -20z m14 -159 c-9 -9 -13 7 -18 69 l-6 65 14
-65 c8 -36 12 -67 10 -69z m-4622 1 c-7 -2 -10 -8 -6 -13 6 -10 -9 -12 -19 -2
-10 10 14 34 26 26 8 -5 7 -8 -1 -11z m-242 -42 c11 -7 12 -12 3 -21 -13 -13
-33 -4 -33 17 0 16 9 18 30 4z m4884 -127 c4 -27 2 -43 -4 -43 -5 0 -10 17
-10 38 0 20 -4 54 -9 74 -5 20 -6 40 -2 43 6 6 9 -10 25 -112z m-74 -7 c0 -3
-4 -8 -10 -11 -5 -3 -10 -1 -10 4 0 6 5 11 10 11 6 0 10 -2 10 -4z m80 -93 c0
-21 5 -75 11 -120 10 -66 16 -84 30 -88 11 -4 31 -22 45 -41 32 -42 42 -133
24 -215 -23 -108 -29 -173 -20 -248 14 -124 21 -279 14 -316 -4 -24 -12 -35
-23 -35 -17 0 -23 -34 -10 -55 4 -5 -1 -18 -11 -27 -15 -17 -16 -15 -14 35 1
28 -2 59 -6 66 -4 8 -4 25 1 37 7 19 5 22 -8 17 -13 -5 -15 -1 -9 28 3 19 7
40 8 47 1 6 7 12 15 12 16 0 17 12 1 29 -11 11 -10 12 1 6 10 -6 8 2 -5 26
-20 33 -23 89 -3 58 6 -11 9 -8 9 9 0 26 -15 29 -29 5 -9 -16 -10 -15 -11 7 0
44 12 100 21 94 5 -3 9 0 9 5 0 6 -4 11 -10 11 -5 0 -10 9 -10 21 0 11 4 18 9
15 9 -6 24 35 16 43 -3 2 -5 -1 -5 -7 0 -7 -5 -12 -11 -12 -5 0 -7 5 -4 11 4
5 7 44 6 85 -1 74 9 92 29 54 6 -11 16 -20 23 -20 8 0 8 3 -1 9 -17 10 -17 21
-2 31 10 6 9 13 -3 30 -12 17 -13 29 -6 48 12 31 3 63 -16 56 -8 -3 -19 -22
-26 -41 -14 -44 -75 -113 -99 -113 -10 0 -21 -6 -23 -12 -12 -29 -5 19 7 54
l13 37 -23 -16 c-31 -20 -30 -5 2 30 14 15 23 31 20 36 -6 10 33 20 52 13 10
-3 10 -7 1 -18 -7 -8 -9 -17 -5 -21 8 -8 36 29 29 40 -2 4 0 13 5 20 6 7 8 23
7 37 -10 66 -14 100 -20 160 -4 36 -9 77 -10 93 -2 15 1 27 6 27 5 0 9 -17 9
-37z m-106 -198 c-4 -8 -8 -15 -10 -15 -2 0 -4 7 -4 15 0 8 4 15 10 15 5 0 7
-7 4 -15z m-2158 -33 c5 -18 15 -37 22 -44 14 -14 16 -28 4 -28 -9 0 -62 91
-62 105 0 19 26 -6 36 -33z m2129 1 c-5 -15 -7 -39 -6 -53 2 -28 -31 -66 -48
-55 -6 3 -11 1 -11 -5 0 -6 -4 -8 -10 -5 -19 12 -10 35 30 75 22 22 40 50 40
62 0 12 3 19 6 15 4 -3 3 -19 -1 -34z m-115 -103 c0 -5 -7 -10 -16 -10 -8 0
-12 5 -9 10 3 6 10 10 16 10 5 0 9 -4 9 -10z m-1930 -37 c0 -10 -4 -25 -10
-33 -8 -12 -10 -12 -16 3 -7 20 1 47 16 47 5 0 10 -8 10 -17z m2015 -13 c3 -5
1 -10 -4 -10 -6 0 -11 5 -11 10 0 6 2 10 4 10 3 0 8 -4 11 -10z m-3455 -25 c0
-8 -4 -15 -9 -15 -13 0 -22 16 -14 24 11 11 23 6 23 -9z m1490 -120 c0 -8 -9
-15 -19 -15 -10 0 -21 7 -25 15 -4 11 1 15 19 15 16 0 25 -6 25 -15z m2588
-48 c2 -11 -3 -17 -16 -17 -20 0 -36 23 -24 34 11 12 37 1 40 -17z m-4168 3
c0 -5 -6 -10 -14 -10 -8 0 -18 5 -21 10 -3 6 3 10 14 10 12 0 21 -4 21 -10z
m4528 -251 c-2 -6 -8 -10 -13 -10 -5 0 -11 4 -13 10 -2 6 4 11 13 11 9 0 15
-5 13 -11z m-5398 -99 c0 -5 -2 -10 -4 -10 -3 0 -8 5 -11 10 -3 6 -1 10 4 10
6 0 11 -4 11 -10z m40 -140 c0 -5 -4 -10 -10 -10 -5 0 -10 5 -10 10 0 6 5 10
10 10 6 0 10 -4 10 -10z m3530 -40 c0 -5 -4 -10 -10 -10 -5 0 -10 5 -10 10 0
6 5 10 10 10 6 0 10 -4 10 -10z m-3260 -20 c0 -5 -7 -10 -16 -10 -8 0 -12 5
-9 10 3 6 10 10 16 10 5 0 9 -4 9 -10z m5370 -40 c0 -5 -7 -10 -16 -10 -8 0
-12 5 -9 10 3 6 10 10 16 10 5 0 9 -4 9 -10z m-4160 -10 c0 -5 -4 -10 -10 -10
-5 0 -10 5 -10 10 0 6 5 10 10 10 6 0 10 -4 10 -10z m-1150 -20 c0 -5 -5 -10
-11 -10 -5 0 -7 5 -4 10 3 6 8 10 11 10 2 0 4 -4 4 -10z m4958 -65 c-3 -3 -9
2 -12 12 -6 14 -5 15 5 6 7 -7 10 -15 7 -18z m3212 -35 c0 -5 -4 -10 -10 -10
-5 0 -10 5 -10 10 0 6 5 10 10 10 6 0 10 -4 10 -10z m-8125 -79 c-3 -6 -14
-11 -23 -11 -15 1 -15 2 2 15 21 16 32 13 21 -4z m59 -106 c11 -8 18 -17 15
-19 -2 -2 -20 10 -39 26 -34 29 -15 24 24 -7z m4009 0 c-2 -5 -7 -10 -13 -9
-5 1 -22 2 -36 3 -14 0 -23 5 -20 10 8 12 72 9 69 -4z m-1453 -27 c0 -18 -2
-20 -9 -8 -6 8 -7 18 -5 22 9 14 14 9 14 -14z m1370 18 c0 -2 -7 -7 -16 -10
-8 -3 -12 -2 -9 4 6 10 25 14 25 6z m-2030 -22 c0 -2 -7 -4 -15 -4 -8 0 -15 4
-15 10 0 5 7 7 15 4 8 -4 15 -8 15 -10z m704 -11 c4 -5 13 -8 19 -8 5 0 12 -6
15 -14 3 -10 0 -12 -13 -7 -13 5 -16 2 -11 -10 4 -12 2 -15 -9 -10 -10 3 -17
-3 -21 -19 -3 -14 -13 -25 -23 -25 -14 0 -14 2 -1 10 13 8 13 10 -1 10 -9 0
-19 7 -22 14 -4 10 -1 13 10 9 18 -7 35 16 27 40 -5 17 15 24 30 10z m1542
-25 c40 -27 56 -47 88 -113 23 -48 34 -81 27 -83 -7 -2 -8 -9 -1 -22 7 -13 7
-21 -1 -26 -15 -9 -39 23 -39 53 0 13 -4 23 -9 23 -5 0 -17 22 -26 49 -9 27
-23 55 -31 62 -9 7 -13 21 -11 31 5 19 -8 25 -18 8 -4 -7 -14 -6 -28 1 -37 20
-77 13 -111 -20 -18 -17 -37 -31 -44 -31 -7 0 -11 -3 -9 -7 1 -5 -1 -8 -4 -8
-3 0 -13 -6 -23 -14 -26 -22 -29 -7 -6 32 23 38 46 53 53 34 2 -7 3 -4 1 6 -4
29 43 57 96 57 37 0 59 -7 96 -32z m2051 -10 c-3 -7 -5 -2 -5 12 0 14 2 19 5
13 2 -7 2 -19 0 -25z m-4102 -8 c-10 -11 -21 -17 -24 -14 -3 3 3 12 13 20 28
20 32 17 11 -6z m-1495 6 c0 -3 -4 -8 -10 -11 -5 -3 -10 -1 -10 4 0 6 5 11 10
11 6 0 10 -2 10 -4z m-460 -41 c-7 -9 -15 -13 -19 -10 -3 3 1 10 9 15 21 14
24 12 10 -5z m530 -15 c0 -5 -2 -10 -4 -10 -3 0 -8 5 -11 10 -3 6 -1 10 4 10
6 0 11 -4 11 -10z m-385 -20 c3 -5 1 -10 -4 -10 -6 0 -11 5 -11 10 0 6 2 10 4
10 3 0 8 -4 11 -10z m425 -15 c-12 -15 -30 -12 -30 5 0 8 31 19 39 13 2 -1 -2
-9 -9 -18z m-280 -49 c0 -11 -19 -15 -25 -6 -3 5 1 10 9 10 9 0 16 -2 16 -4z
m38 -34 c6 -18 -15 -14 -22 4 -4 10 -1 14 6 12 6 -2 14 -10 16 -16z m2037 -72
c3 -5 2 -10 -4 -10 -5 0 -13 5 -16 10 -3 6 -2 10 4 10 5 0 13 -4 16 -10z
m1795 -65 c0 -16 -6 -25 -16 -25 -13 0 -14 3 -4 15 6 8 9 19 5 25 -3 5 -1 10
4 10 6 0 11 -11 11 -25z m3870 15 c0 -5 -4 -10 -9 -10 -6 0 -13 5 -16 10 -3 6
1 10 9 10 9 0 16 -4 16 -10z m-5461 -58 c0 -24 -1 -25 -9 -7 -12 28 -12 47 0
40 6 -3 10 -18 9 -33z m1572 -12 c16 0 18 -9 13 -92 -2 -51 -8 -115 -13 -143
-5 -27 -14 -79 -21 -115 -6 -36 -13 -74 -15 -85 -39 -194 -56 -237 -138 -350
-45 -64 -54 -69 -69 -45 -8 12 3 36 43 95 61 92 82 143 99 240 6 39 20 117 30
175 29 165 35 217 28 269 0 3 0 22 1 41 1 26 4 31 13 22 7 -7 20 -12 29 -12z
m-2682 -83 c12 -15 12 -17 -3 -11 -9 3 -16 13 -16 22 0 8 1 13 3 11 1 -2 9
-12 16 -22z m341 -8 c0 -6 -4 -7 -10 -4 -5 3 -10 11 -10 16 0 6 5 7 10 4 6 -3
10 -11 10 -16z m3514 -34 c3 -8 1 -15 -3 -15 -5 0 -12 6 -14 13 -4 8 -6 7 -6
-3 -1 -9 -11 -16 -23 -17 -23 -2 -23 -2 2 17 30 24 36 24 44 5z m441 -45 c3
-5 1 -10 -4 -10 -6 0 -11 5 -11 10 0 6 2 10 4 10 3 0 8 -4 11 -10z m-6305 -20
c0 -5 -5 -10 -11 -10 -5 0 -7 5 -4 10 3 6 8 10 11 10 2 0 4 -4 4 -10z m145 0
c3 -5 -1 -10 -10 -10 -9 0 -13 5 -10 10 3 6 8 10 10 10 2 0 7 -4 10 -10z
m8885 -5 c0 -8 -2 -15 -4 -15 -2 0 -6 7 -10 15 -3 8 -1 15 4 15 6 0 10 -7 10
-15z m-8840 -15 c0 -5 -7 -10 -16 -10 -8 0 -12 5 -9 10 3 6 10 10 16 10 5 0 9
-4 9 -10z m1820 -10 c0 -5 -2 -10 -4 -10 -3 0 -8 5 -11 10 -3 6 -1 10 4 10 6
0 11 -4 11 -10z m-1964 -59 c-4 -6 -15 -11 -25 -11 -12 0 -16 7 -15 28 2 39 2
39 25 15 12 -11 18 -26 15 -32z m7824 39 c0 -5 -2 -10 -4 -10 -3 0 -8 5 -11
10 -3 6 -1 10 4 10 6 0 11 -4 11 -10z m-8730 -59 c0 -12 -20 -25 -27 -18 -7 7
6 27 18 27 5 0 9 -4 9 -9z m7890 -1 c0 -5 -5 -10 -11 -10 -5 0 -7 5 -4 10 3 6
8 10 11 10 2 0 4 -4 4 -10z m1375 0 c3 -5 -3 -10 -15 -10 -12 0 -18 5 -15 10
3 6 10 10 15 10 5 0 12 -4 15 -10z m-7765 -140 c0 -5 -7 -10 -15 -10 -8 0 -15
5 -15 10 0 6 7 10 15 10 8 0 15 -4 15 -10z m-1590 -13 c0 -14 -20 -37 -32 -37
-12 0 -10 24 4 38 16 16 28 15 28 -1z m3834 -2 c-4 -8 -16 -15 -28 -15 -21 1
-21 1 -2 15 25 19 37 19 30 0z m5766 -16 c0 -6 -4 -7 -10 -4 -5 3 -10 11 -10
16 0 6 5 7 10 4 6 -3 10 -11 10 -16z m-450 -69 c0 -5 -7 -7 -15 -4 -8 4 -12
10 -9 15 6 11 24 2 24 -11z m-4563 -42 c-3 -8 -6 -5 -6 6 -1 11 2 17 5 13 3
-3 4 -12 1 -19z m-3187 -24 c0 -8 -4 -12 -10 -9 -5 3 -10 10 -10 16 0 5 5 9
10 9 6 0 10 -7 10 -16z m1850 6 c0 -5 -4 -10 -10 -10 -5 0 -10 5 -10 10 0 6 5
10 10 10 6 0 10 -4 10 -10z m-610 -40 c0 -5 -5 -10 -11 -10 -5 0 -7 5 -4 10 3
6 8 10 11 10 2 0 4 -4 4 -10z m555 -19 c-3 -6 -11 -8 -17 -5 -6 4 -5 9 3 15
16 10 23 4 14 -10z m-2585 -36 c-7 -8 -17 -15 -22 -15 -6 0 -5 7 2 15 7 8 17
15 22 15 6 0 5 -7 -2 -15z m1630 5 c0 -5 -4 -10 -10 -10 -5 0 -10 5 -10 10 0
6 5 10 10 10 6 0 10 -4 10 -10z m3700 -54 c0 -3 -4 -8 -10 -11 -5 -3 -10 -1
-10 4 0 6 5 11 10 11 6 0 10 -2 10 -4z m-2510 -27 c0 -6 -4 -7 -10 -4 -5 3
-10 11 -10 16 0 6 5 7 10 4 6 -3 10 -11 10 -16z m5365 11 c-3 -5 -11 -10 -16
-10 -6 0 -7 5 -4 10 3 6 11 10 16 10 6 0 7 -4 4 -10z m-7235 -74 c0 -3 -4 -8
-10 -11 -5 -3 -10 -1 -10 4 0 6 5 11 10 11 6 0 10 -2 10 -4z m6485 -46 c16
-18 16 -20 2 -20 -9 0 -21 9 -27 20 -6 11 -7 20 -2 20 5 0 17 -9 27 -20z
m-3135 -7 c-1 -5 -12 -21 -25 -38 -28 -34 -35 -14 -9 23 15 21 34 30 34 15z
m315 -3 c-3 -5 -11 -10 -16 -10 -6 0 -7 5 -4 10 3 6 11 10 16 10 6 0 7 -4 4
-10z m3010 -10 c3 -5 1 -10 -4 -10 -6 0 -11 5 -11 10 0 6 2 10 4 10 3 0 8 -4
11 -10z m-5611 -18 c2 -4 1 -14 -4 -22 -7 -11 -14 -12 -34 -2 -14 6 -26 16
-26 22 0 12 57 14 64 2z m6826 -37 c0 -9 -6 -12 -15 -9 -8 4 -12 10 -9 15 8
14 24 10 24 -6z m65 -46 c12 -19 -5 -23 -22 -6 -16 16 -16 17 -1 17 9 0 20 -5
23 -11z m-745 -39 c0 -5 -7 -10 -16 -10 -8 0 -12 5 -9 10 3 6 10 10 16 10 5 0
9 -4 9 -10z m-2868 -72 c-7 -7 -12 -8 -12 -2 0 14 12 26 19 19 2 -3 -1 -11 -7
-17z"/>
<path d="M5885 5481 c-57 -20 -95 -44 -117 -71 -12 -17 -35 -45 -49 -63 -14
-18 -36 -50 -49 -72 -13 -22 -37 -55 -52 -74 -16 -18 -26 -36 -23 -40 8 -7 75
67 72 78 -1 4 13 22 31 40 17 18 30 36 27 41 -3 5 4 11 15 15 11 3 20 10 20
15 0 5 8 11 18 14 9 3 43 30 75 60 32 30 63 57 70 60 19 7 -15 5 -38 -3z"/>
<path d="M5567 5112 c-15 -14 -27 -21 -27 -14 0 7 -4 10 -10 7 -5 -3 -10 -14
-10 -23 0 -9 -16 -28 -35 -41 -19 -13 -35 -29 -35 -35 0 -20 15 -32 38 -32 18
0 30 12 49 51 14 27 34 63 45 78 27 38 18 43 -15 9z"/>
<path d="M6865 6260 c3 -5 8 -10 11 -10 2 0 4 5 4 10 0 6 -5 10 -11 10 -5 0
-7 -4 -4 -10z"/>
<path d="M3848 5797 c23 -17 63 -43 89 -57 27 -14 50 -28 51 -32 2 -5 12 -8
22 -8 9 0 24 -7 31 -16 21 -25 113 -64 120 -52 9 15 0 38 -15 38 -6 0 -17 14
-25 31 -8 18 -22 34 -32 36 -11 3 -19 9 -19 13 0 4 -11 11 -25 14 -14 4 -25
11 -25 17 0 6 -5 7 -11 3 -6 -3 -14 -2 -18 3 -3 6 -19 13 -36 17 -16 4 -25 3
-18 -1 7 -5 9 -14 4 -22 -6 -10 -13 -7 -27 11 -11 13 -27 22 -36 20 -10 -2
-18 1 -18 7 0 6 -12 11 -26 11 -26 0 -25 -1 14 -33z"/>
<path d="M3585 5813 c-46 -7 -50 -20 -8 -26 21 -4 48 -15 60 -26 11 -11 35
-24 52 -28 36 -9 191 -149 228 -204 32 -49 76 -76 133 -82 25 -3 86 -19 137
-36 50 -17 99 -28 107 -25 9 3 16 2 16 -4 0 -6 -6 -12 -12 -15 -7 -2 1 -8 17
-12 17 -5 32 -11 35 -14 18 -24 84 -50 108 -44 24 6 26 5 14 -10 -12 -14 -10
-17 15 -23 15 -4 30 -10 33 -13 3 -4 39 -17 80 -30 41 -13 80 -26 85 -28 6 -3
1 3 -9 11 -11 9 -30 16 -43 16 -16 0 -21 4 -17 15 4 10 0 15 -14 15 -12 0 -24
5 -27 10 -3 6 -14 10 -25 10 -10 0 -21 7 -24 16 -3 8 -10 13 -15 10 -5 -3 -11
3 -14 14 -3 11 0 20 6 20 6 0 7 3 4 7 -4 3 -2 12 3 18 7 9 3 17 -14 29 -14 9
-32 16 -40 16 -8 0 -19 6 -23 13 -4 6 -21 18 -38 26 -16 7 -42 20 -57 28 -16
8 -28 11 -28 6 0 -4 -6 -1 -13 8 -17 23 -53 40 -70 33 -8 -3 -17 2 -20 10 -6
15 -107 66 -131 66 -6 0 -16 10 -21 23 -6 13 -17 21 -28 19 -11 -2 -17 4 -17
16 0 23 -80 64 -101 51 -18 -11 -49 -12 -49 0 0 5 10 7 23 4 39 -10 6 13 -48
32 -27 10 -54 22 -59 27 -6 4 -18 8 -28 8 -10 0 -18 4 -18 9 0 5 -19 14 -42
19 -24 5 -50 12 -58 14 -8 3 -28 3 -45 1z m865 -473 c0 -5 -5 -10 -11 -10 -5
0 -7 5 -4 10 3 6 8 10 11 10 2 0 4 -4 4 -10z"/>
<path d="M4545 5339 c-19 -9 -19 -9 2 -5 12 2 24 -1 27 -8 3 -8 5 -8 5 1 1 17
-11 22 -34 12z"/>
<path d="M4825 5236 c22 -20 46 -36 54 -36 12 0 -1 10 -79 62 -8 6 3 -6 25
-26z"/>
<path d="M5167 4996 c-3 -7 14 -32 39 -57 24 -24 44 -39 44 -34 0 6 -16 25
-35 43 -20 18 -33 36 -30 41 3 5 1 12 -4 15 -5 3 -11 0 -14 -8z"/>
<path d="M5627 2453 c-3 -16 -1 -32 4 -37 5 -6 9 4 9 27 0 44 -6 48 -13 10z"/>
<path d="M5620 2114 c0 -8 5 -12 10 -9 6 4 8 11 5 16 -9 14 -15 11 -15 -7z"/>
<path d="M5392 2850 c-12 -10 -18 -21 -13 -24 10 -7 41 20 41 35 0 12 -1 12
-28 -11z"/>
</g>
</svg>
